<svg width="92" height="100" viewBox="0 0 92 100" fill="none" xmlns="http://www.w3.org/2000/svg">
<path d="M54.9625 0.00267251C55.5385 0.636057 56.2425 1.19461 56.6718 1.91619C59.6051 6.83895 61.8158 12.0557 62.6531 17.7722C63.7997 25.5839 62.0291 32.4924 56.2558 38.1394C55.9731 38.4147 55.7625 38.9091 55.7571 39.3019C55.7198 42.8163 55.7331 46.3333 55.7411 49.8477C55.7411 50.0561 55.8158 50.2646 55.8558 50.473C56.0105 50.3234 56.1571 50.1657 56.3198 50.0267C57.6104 48.9043 58.0104 47.4264 58.3464 45.7854C59.7731 38.8236 64.0157 34.0157 70.237 30.8702C75.7064 28.1041 81.5837 27.0645 87.6556 26.971C89.437 26.9443 90.5863 28.342 90.2103 30.0871C89.1436 35.05 87.0156 39.4837 83.5036 43.1985C82.7436 44.0002 81.949 44.0937 81.2823 43.5005C80.605 42.8991 80.6343 42.0012 81.397 41.1861C83.7943 38.6311 85.4716 35.654 86.573 32.3374C86.6396 32.1369 86.6316 31.9098 86.6583 31.6933C86.4556 31.7628 86.237 31.8055 86.053 31.9098C78.2157 36.4156 70.6797 41.3731 63.6744 47.1137C63.5064 47.25 63.3811 47.4371 63.2371 47.6001C63.4744 47.6509 63.7091 47.7444 63.9464 47.7444C67.9864 47.7872 71.8904 47.1484 75.5837 45.4247C76.0317 45.2162 76.6397 44.981 77.037 45.128C77.4903 45.2964 77.9597 45.8255 78.117 46.2986C78.349 46.9907 77.917 47.6054 77.2423 47.8379C74.8904 48.6504 72.557 49.5724 70.1464 50.1416C66.9677 50.8953 63.6984 50.759 60.4504 50.5532C60.1224 50.5318 59.6798 50.6655 59.4584 50.8926C57.8691 52.5335 56.8024 54.4791 56.1811 56.6839C55.9838 57.3841 56.2158 57.5685 56.9064 57.6167C64.5091 58.1538 71.2797 60.8424 77.2397 65.5968C79.0183 67.0159 80.8077 68.4189 82.5596 69.8674C83.037 70.263 83.3756 70.2336 83.925 69.985C84.9116 69.5387 85.9543 69.0416 87.005 68.9561C89.1436 68.7824 91.0289 70.2443 91.7249 72.3181C92.4316 74.4294 91.7463 76.9015 90.0183 78.0988C84.6023 81.859 79.205 85.6486 73.7064 89.2806C72.3997 90.1438 70.7544 90.7558 69.2024 90.9375C61.2078 91.8676 53.1971 92.6533 45.1838 93.3936C43.9278 93.5085 42.5732 93.3 41.3572 92.9339C37.3839 91.7446 33.4452 90.4351 29.5093 89.1229C28.0986 88.6525 26.9013 88.8289 25.8506 89.8979C25.6693 90.0823 25.4693 90.2533 25.2693 90.4164C24.3439 91.1727 23.6213 91.79 24.0773 93.3454C24.5839 95.0639 23.608 96.5712 22.0293 97.4985C20.5546 98.3644 19.0453 99.1689 17.5493 100H15.7947C14.2053 99.5163 13.232 98.4045 12.4267 96.9827C8.60803 90.2587 4.72271 83.5748 0.864068 76.8748C-0.717258 74.1274 -0.122594 71.8905 2.60273 70.3057C3.55739 69.7499 4.49872 69.1753 5.46938 68.6515C7.03737 67.8069 8.60269 67.8497 10.0454 68.916C10.504 69.2554 10.8 69.2047 11.2373 68.9561C14.6267 67.0399 17.9973 65.089 21.432 63.2556C25.7946 60.9252 30.3679 60.4923 35.0772 62.1038C35.7226 62.3229 36.2159 62.2508 36.8052 61.9301C41.4585 59.3965 46.4292 57.9133 51.7251 57.6113C52.6265 57.5605 52.7145 57.2879 52.4798 56.4889C51.8691 54.4177 50.8558 52.5897 49.3838 51.0316C49.1118 50.743 48.5652 50.5425 48.1652 50.5719C41.6212 51.0476 35.3066 50.3554 29.6133 46.7689C23.3653 42.835 19.888 37.0089 18.472 29.86C18.1813 28.3981 19.264 26.9576 20.784 26.9897C29.7599 27.1741 38.2105 28.9754 44.9252 35.539C48.2718 38.8102 49.9945 42.9098 50.7545 47.5119C50.9145 48.4713 51.9118 49.2918 52.5225 50.1764C52.6185 50.0241 52.7945 49.8717 52.7971 49.7194C52.8158 47.2794 52.6878 44.8314 52.8425 42.3994C52.9971 39.9861 52.4051 38.1634 50.6745 36.2686C46.3225 31.5116 45.0505 25.616 45.6878 19.2982C46.3465 12.7639 48.8238 6.86301 52.2291 1.32289C52.5518 0.799081 53.1331 0.438292 53.5918 0C54.0478 0 54.5011 0 54.9571 0L54.9625 0.00267251ZM45.1412 90.6596C45.1518 90.6061 45.1625 90.5554 45.1705 90.5019C52.6291 89.7456 60.0851 88.9706 67.5437 88.241C69.4877 88.0512 71.2637 87.5434 72.893 86.3942C77.0343 83.4759 81.2237 80.627 85.3943 77.7514C86.357 77.0886 87.341 76.4525 88.2743 75.7496C89.1836 75.0628 89.3463 73.7372 88.709 72.7645C88.0823 71.8077 87.0823 71.5885 85.9863 72.1685C82.5463 73.9911 79.0957 75.7924 75.6664 77.6364C72.7304 79.2159 69.6104 80.0844 66.2931 80.3009C60.8184 80.659 55.3465 81.0385 49.8745 81.4047C48.8318 81.4742 48.1518 80.9343 48.1065 80.0337C48.0612 79.117 48.6212 78.5638 49.7092 78.489C54.3065 78.1763 58.9064 77.8502 63.5064 77.5856C64.2877 77.5402 64.4131 77.2275 64.3624 76.5754C64.2237 74.7822 62.7224 73.0958 60.9118 72.8473C58.3091 72.4892 55.7038 72.0936 53.0878 71.8959C49.0665 71.5939 45.3705 70.5356 41.9119 68.3495C39.7972 67.0105 37.3892 66.1045 35.0506 65.1638C31.2986 63.6539 27.4453 63.5683 23.8026 65.3723C19.9973 67.2564 16.3467 69.4479 12.6427 71.5351C12.4853 71.6233 12.368 72.0883 12.456 72.2647C12.8747 73.1065 13.3787 73.9056 13.8427 74.7261C14.4347 75.779 14.2933 76.6503 13.472 77.0912C12.688 77.5108 11.8987 77.1928 11.32 76.1986C10.4854 74.7688 9.67202 73.323 8.82936 71.8959C8.26136 70.9364 7.68003 70.7708 6.72537 71.3026C5.73338 71.8531 4.75205 72.4277 3.77872 73.013C2.86672 73.5635 2.68006 74.1515 3.18939 75.0414C7.25337 82.1129 11.3253 89.179 15.4053 96.2398C15.928 97.1431 16.5147 97.2821 17.4426 96.7716C18.352 96.2692 19.248 95.7427 20.144 95.2215C21.4133 94.4813 21.552 93.9735 20.8213 92.7014C19.008 89.5451 17.1893 86.3942 15.3733 83.2407C14.5733 81.851 14.6 81.0385 15.4613 80.5121C16.336 79.9802 17.0853 80.3597 17.8773 81.7307C18.9813 83.6442 20.0826 85.5604 21.1866 87.4739C22.2026 89.2378 22.2373 89.2752 23.728 87.8534C25.7493 85.9292 28.0079 85.5043 30.6346 86.3969C34.4399 87.6877 38.2719 88.9064 42.1092 90.0983C43.0825 90.4003 44.1278 90.4778 45.1385 90.6596H45.1412ZM53.9571 60.3934C53.2585 60.4335 52.2505 60.4655 51.2505 60.5537C47.4052 60.8958 43.7252 61.8606 40.2185 63.4855C40.0505 63.563 39.9012 63.6833 39.7439 63.7848C39.9039 63.889 40.0612 64.0013 40.2292 64.0948C41.9065 65.0142 43.5572 65.987 45.2718 66.8234C46.5705 67.4568 47.9118 68.165 49.3065 68.3976C52.7891 68.9775 56.3091 69.3463 59.8211 69.7285C63.8344 70.1614 66.2424 71.9867 67.1091 75.3648C67.2717 75.9982 67.3224 77.0244 67.6851 77.1554C68.2584 77.3638 69.0584 77.0057 69.7464 76.8293C73.445 75.894 76.565 73.7025 79.9357 72.0562C80.5517 71.7569 80.0103 71.5645 79.8157 71.4068C78.277 70.1614 76.733 68.9187 75.1757 67.6947C69.0397 62.8655 62.0398 60.5083 53.9571 60.3961V60.3934ZM43.1519 47.7684C43.7038 47.7684 44.2558 47.7872 44.8052 47.7604C45.0398 47.7497 45.2692 47.6482 45.5038 47.5867C45.3492 47.4264 45.2078 47.25 45.0372 47.111C38.0185 41.3544 30.4639 36.3916 22.608 31.875C22.432 31.7735 22.2106 31.7494 22.0106 31.688C22.0373 31.875 22.0346 32.0701 22.0933 32.2465C23.4826 36.3595 25.6453 39.9647 29.0239 42.7522C33.1252 46.1355 37.9385 47.5119 43.1572 47.7684H43.1519ZM52.8158 20.4126C52.8158 16.019 52.8158 11.6254 52.8158 7.22914C52.8158 7.04207 52.7785 6.85499 52.7571 6.66791C52.6371 6.79352 52.4745 6.89775 52.4025 7.04741C50.1065 11.8072 48.4985 16.7486 48.4852 22.107C48.4745 26.3376 49.6372 30.1887 52.1731 33.5935C52.3198 33.7912 52.5251 33.9462 52.7038 34.1199C52.7411 33.8794 52.8105 33.6389 52.8105 33.3984C52.8158 29.0689 52.8158 24.7394 52.8158 20.41V20.4126ZM55.7385 20.3031C55.7385 24.6593 55.7385 29.0154 55.7438 33.3716C55.7438 33.6122 55.8238 33.85 55.8665 34.0905C56.0424 33.9168 56.2451 33.7618 56.3918 33.5641C58.6291 30.5655 59.8264 27.1794 60.0238 23.4513C60.3358 17.6065 58.6371 12.2294 56.1438 7.04741C56.0718 6.90042 55.9118 6.79352 55.7918 6.67059C55.7731 6.86033 55.7385 7.04741 55.7385 7.23716C55.7358 11.5934 55.7385 15.9495 55.7385 20.3057V20.3031ZM82.405 30.2902C82.277 30.3063 82.181 30.317 82.085 30.333C78.8077 30.8461 75.605 31.6372 72.5704 33.0082C67.5117 35.2932 63.6611 38.7594 61.7944 44.1472C61.7171 44.3744 61.7224 44.6283 61.6878 44.8688C61.8771 44.7458 62.0771 44.6389 62.2504 44.5C67.3731 40.3389 72.7837 36.5867 78.3703 33.091C79.6903 32.2652 81.0317 31.4768 82.3596 30.6617C82.4823 30.5869 82.5623 30.4399 82.661 30.3277C82.565 30.3143 82.4716 30.3009 82.405 30.2929V30.2902ZM26.3946 30.1138C26.3759 30.1753 26.3573 30.2368 26.3413 30.2983C26.2506 30.3116 26.1599 30.3276 26.0666 30.341C26.1413 30.4372 26.1973 30.5655 26.2959 30.6243C26.8479 30.9664 27.4106 31.2871 27.9653 31.6238C34.4106 35.531 40.6319 39.7589 46.4905 44.5133C46.6638 44.6523 46.8665 44.7565 47.0558 44.8741C47.0185 44.6309 47.0425 44.3557 46.9332 44.1472C46.0638 42.4849 45.3412 40.7157 44.2532 39.2111C41.7519 35.7528 38.2132 33.6255 34.2506 32.2732C31.6852 31.3967 29.0186 30.8221 26.3946 30.1138Z" fill="#333333"/>
</svg>
